<?xml version="1.0" standalone="no"?>
<!DOCTYPE svg PUBLIC "-//W3C//DTD SVG 20010904//EN"
 "http://www.w3.org/TR/2001/REC-SVG-20010904/DTD/svg10.dtd">
<svg version="1.0" xmlns="http://www.w3.org/2000/svg"
 width="1020.000000pt" height="1020.000000pt" viewBox="0 0 1020.000000 1020.000000"
 preserveAspectRatio="xMidYMid meet">
<metadata>
Created by potrace 1.11, written by Peter Selinger 2001-2013
</metadata>
<g transform="translate(0.000000,1020.000000) scale(0.100000,-0.100000)"
fill="#000000" stroke="none">
<path d="M520 8630 c-244 -63 -432 -248 -499 -490 -26 -92 -29 -266 -6 -355
20 -81 85 -209 135 -270 79 -95 210 -187 307 -216 l42 -12 4 -386 c4 -430 3
-425 80 -577 94 -187 277 -331 484 -385 72 -18 116 -19 737 -19 l661 0 37 23
c127 77 129 259 4 332 l-43 25 -605 0 c-367 0 -626 4 -659 10 -118 22 -224
103 -277 210 l-27 55 -3 355 -3 355 48 17 c132 48 284 174 356 298 21 36 49
101 64 145 23 70 26 96 26 210 0 114 -3 140 -26 210 -62 189 -182 326 -362
416 -141 70 -321 88 -475 49z"/>
<path d="M9355 8635 c-237 -52 -436 -230 -512 -459 -24 -72 -27 -96 -28 -221
0 -128 2 -147 28 -222 67 -194 233 -366 415 -429 l53 -19 -3 -350 -3 -350 -26
-56 c-44 -94 -116 -161 -219 -205 -42 -18 -82 -19 -697 -24 l-651 -5 -39 -31
c-57 -46 -75 -86 -71 -166 3 -57 8 -73 34 -104 63 -78 19 -74 752 -74 723 0
727 0 869 65 194 89 331 243 405 455 l33 95 3 378 c3 304 6 377 17 377 7 0 53
20 102 45 153 76 275 209 336 365 130 333 -16 717 -333 874 -52 25 -126 53
-165 61 -86 18 -219 18 -300 0z"/>
<path d="M2723 8000 c-12 -5 -26 -18 -32 -29 -8 -14 -11 -831 -11 -2729 0
-2653 0 -2710 19 -2733 l19 -24 814 -3 815 -2 26 24 27 25 0 660 c0 894 -25
1400 -101 2045 -11 93 -17 171 -14 174 3 3 5 -4 5 -14 0 -11 4 -24 9 -30 4 -5
36 -76 71 -159 34 -82 67 -159 73 -170 6 -11 12 -22 12 -25 5 -24 41 -110 47
-110 5 0 8 -6 8 -14 0 -8 23 -65 50 -127 28 -62 50 -119 50 -126 0 -7 5 -13
10 -13 6 0 10 -6 10 -13 0 -8 84 -209 186 -448 102 -239 255 -598 340 -799 86
-201 162 -378 169 -395 7 -16 52 -122 100 -235 48 -113 96 -214 107 -225 18
-20 32 -20 968 -20 898 0 950 1 967 18 17 17 18 142 21 2738 l2 2720 -25 25
-24 24 -810 -2 c-763 -3 -811 -4 -828 -21 -17 -17 -18 -59 -18 -715 1 -546 5
-757 18 -972 21 -325 62 -849 82 -1051 8 -79 12 -145 10 -148 -3 -2 -5 0 -5 6
0 6 -16 46 -37 89 -20 44 -37 84 -39 89 -2 9 -92 217 -134 310 -25 55 -45 101
-140 320 -45 105 -90 208 -100 230 -91 208 -151 343 -224 510 -36 83 -117 269
-181 415 -64 146 -118 270 -119 275 -1 6 -12 30 -24 55 -32 68 -172 389 -172
395 0 3 -13 33 -30 67 -16 34 -30 67 -30 74 0 8 -13 27 -30 44 l-29 30 -928
-1 c-510 0 -938 -4 -950 -9z"/>
<path d="M517 5674 c-132 -32 -279 -126 -368 -238 -101 -124 -149 -266 -149
-435 0 -131 18 -211 72 -321 34 -68 60 -103 128 -171 73 -73 101 -94 180 -132
52 -25 120 -51 150 -58 79 -20 260 -17 340 5 197 54 358 188 447 375 l48 100
550 3 c607 3 582 1 638 67 76 91 57 225 -41 292 l-36 24 -557 3 -558 2 -12 38
c-29 92 -84 178 -169 262 -144 144 -285 201 -494 199 -61 0 -137 -7 -169 -15z"/>
<path d="M9330 5674 c-132 -34 -277 -127 -367 -235 -45 -55 -123 -202 -123
-232 0 -15 -47 -17 -564 -19 l-564 -3 -39 -31 c-21 -17 -46 -46 -55 -65 -22
-42 -24 -139 -4 -178 22 -41 80 -88 123 -100 24 -7 230 -11 571 -11 449 0 532
-2 532 -14 0 -8 21 -55 46 -106 81 -162 229 -288 409 -347 102 -33 281 -38
385 -10 256 68 448 270 505 531 23 101 16 250 -15 351 -70 226 -251 401 -480
464 -90 25 -274 28 -360 5z"/>
<path d="M1070 4059 c-218 -57 -399 -204 -494 -402 -68 -141 -69 -152 -74
-569 -3 -307 -6 -378 -17 -378 -7 0 -55 -21 -106 -47 -74 -37 -110 -63 -175
-127 -138 -137 -193 -263 -201 -461 -6 -145 9 -221 68 -344 33 -67 58 -101
128 -171 93 -95 171 -143 286 -182 59 -19 90 -23 205 -23 122 0 144 3 224 29
282 93 475 361 476 661 0 283 -179 546 -441 647 l-60 23 3 350 3 350 33 67
c56 114 156 187 284 208 38 6 299 10 658 10 668 0 631 -4 695 74 27 34 30 45
30 110 0 82 -21 124 -83 167 l-36 24 -665 2 c-634 2 -670 1 -741 -18z"/>
<path d="M7705 4064 c-70 -38 -105 -96 -105 -173 0 -61 13 -97 48 -134 61 -65
23 -62 737 -67 l650 -5 67 -33 c78 -38 138 -100 177 -182 l26 -55 3 -351 3
-351 -48 -18 c-401 -149 -573 -627 -361 -1005 47 -82 188 -218 275 -263 194
-101 450 -105 641 -8 352 178 484 598 300 954 -62 120 -173 228 -299 290 -52
26 -100 47 -107 47 -9 0 -12 76 -12 339 0 370 -6 433 -56 558 -83 209 -251
366 -472 442 l-77 26 -680 2 c-608 2 -683 1 -710 -13z"/>
</g>
</svg>
